<svg id="Direct_Link" data-name="Direct Link" xmlns="http://www.w3.org/2000/svg" width="16.866" height="16.866" viewBox="0 0 16.866 16.866">
  <path id="Link" d="M10.6,13.369,7.309,16.663a2.139,2.139,0,0,1-2.971,0,2.1,2.1,0,0,1,0-2.971L7.631,10.4A.852.852,0,0,0,6.426,9.192l-3.294,3.3a3.8,3.8,0,0,0,5.374,5.374l3.3-3.294A.852.852,0,1,0,10.6,13.369ZM17.887,3.113a3.812,3.812,0,0,0-5.374,0L9.21,6.407a.852.852,0,1,0,1.206,1.206L13.71,4.318a2.139,2.139,0,0,1,2.971,0,2.1,2.1,0,0,1,0,2.971l-3.294,3.294a.852.852,0,1,0,1.206,1.206l3.294-3.3a3.812,3.812,0,0,0,0-5.374ZM7.818,13.182a.861.861,0,0,0,1.206,0L13.2,9A.852.852,0,1,0,12,7.8L7.818,11.976a.849.849,0,0,0,0,1.206Z" transform="translate(-2.129 -2.005)" fill="#717171"/>
</svg>
