<svg id="Github" xmlns="http://www.w3.org/2000/svg" width="25" height="25" viewBox="0 0 25 25">
  <g id="Group_41" data-name="Group 41">
    <circle id="Ellipse_25" data-name="Ellipse 25" cx="12.5" cy="12.5" r="12.5"/>
  </g>
  <path id="Full_copy" d="M12.787,0s-.867,0-1.747,1.32C10.6.884,9.279.88,8.84.88s-1.765,0-2.2.44C5.759,0,4.894,0,4.894,0A2.726,2.726,0,0,0,4.88,2.2C4.44,2.641,4,3.081,4,5.281S5.6,8.585,7.521,8.8a2.159,2.159,0,0,0-.44,1.32,2.09,2.09,0,0,1-2.641-.88,1.628,1.628,0,0,0-1.32-.88s-.88-.083,0,.44A5.443,5.443,0,0,1,4,10.122a2.481,2.481,0,0,0,3.081,1.32c0,.716,0,1.761,0,1.761H10.6V10.122a2.377,2.377,0,0,0-.44-1.32c1.923-.217,3.521-1.32,3.521-3.521S13.24,2.641,12.8,2.2A2.725,2.725,0,0,0,12.787,0Z" transform="translate(3.938 6.106)" fill="#fff"/>
</svg>
