<svg id="Linked_In" data-name="Linked In" xmlns="http://www.w3.org/2000/svg" width="23.393" height="23.393" viewBox="0 0 23.393 23.393">
  <path id="Path_17" data-name="Path 17" d="M11.7,0a11.7,11.7,0,1,0,11.7,11.7A11.7,11.7,0,0,0,11.7,0Z"/>
  <path id="Path_18" data-name="Path 18" d="M19.83,18.675V14.189c0-2.4-1.283-3.522-2.994-3.522a2.58,2.58,0,0,0-2.344,1.292V10.85h-2.6c.034.735,0,7.825,0,7.825h2.6v-4.37a1.777,1.777,0,0,1,.086-.634,1.423,1.423,0,0,1,1.334-.951c.942,0,1.318.717,1.318,1.769v4.187ZM9.15,9.782a1.356,1.356,0,1,0,.017-2.7,1.356,1.356,0,1,0-.033,2.7Zm1.3,8.893V10.85H7.85v7.825h2.6Z" transform="translate(-2.07 -1.904)" fill="#fff"/>
</svg>
