<svg id="Medium" xmlns="http://www.w3.org/2000/svg" width="21.478" height="21.478" viewBox="0 0 21.478 21.478">
  <path id="Path_34" data-name="Path 34" d="M10.739,21.478A10.739,10.739,0,1,0,0,10.739,10.739,10.739,0,0,0,10.739,21.478Z" fill-rule="evenodd"/>
  <path id="Path_35" data-name="Path 35" d="M9.7,13.373a.575.575,0,0,0-.181-.479L8.18,11.246V11h4.151l3.209,7.2L18.361,11h3.957v.246l-1.143,1.122a.346.346,0,0,0-.127.328v8.241a.346.346,0,0,0,.127.328l1.116,1.122v.246H16.677v-.246l1.156-1.149c.114-.116.114-.15.114-.328V14.249l-3.215,8.358H14.3l-3.743-8.358v5.6a.784.784,0,0,0,.207.643l1.5,1.867v.246H8V22.36l1.5-1.867A.757.757,0,0,0,9.7,19.85Z" transform="translate(-4.42 -6.078)" fill="#fff"/>
</svg>
